# AST/ASF file generated using VICON BodyLanguage
# -----------------------------------------------
:version 1.10
:name VICON
:units
  mass 1.0
  length 0.45
  angle deg
:documentation
   .ast/.asf automatically generated from VICON data using
   VICON BodyBuilder and BodyLanguage model FoxedUp or BRILLIANT.MOD
:root
   order TX TY TZ RX RY RZ
   axis XYZ
   position 0 0 0  
   orientation 0 0 0 
:bonedata
  begin
     id 1 
     name lhipjoint
     direction 0.630305 -0.712092 0.309259 
     length 2.29033 
     axis 0 0 0  XYZ
  end
  begin
     id 2 
     name lfemur
     direction 0.34202 -0.939693 0  
     length 6.43538  
     axis 0 0 20  XYZ
    dof rx ry rz
    limits (-160.0 20.0)
           (-70.0 70.0)
           (-60.0 70.0)
  end
  begin
     id 3 
     name ltibia
     direction 0.34202 -0.939693 0   
     length 7.43097   
     axis 0 0 20   XYZ
    dof rx
    limits (-10.0 170.0)
  end
  begin
     id 4 
     name lfoot
     direction 0.0334653 -0.0919451 0.995202   
     length 1.78438   
     axis -90 7.62852e-016 20   XYZ
    dof rx rz
    limits (-45.0 90.0)
           (-70.0 20.0)
  end
  begin
     id 5 
     name ltoes
     direction 1.53535e-011 -4.21933e-011 1   
     length 0.90832   
     axis -90 7.62852e-016 20   XYZ
    dof rx
    limits (-90.0 20.0)
  end
  begin
     id 6 
     name rhipjoint
     direction -0.682059 -0.67077 0.291312   
     length 2.43143  
     axis 0 0 0  XYZ 
  end
  begin
     id 7 
     name rfemur
     direction -0.34202 -0.939693 0   
     length 6.63488   
     axis 0 0 -20   XYZ
    dof rx ry rz
    limits (-160.0 20.0)
           (-70.0 70.0)
           (-70.0 60.0)
  end
  begin
     id 8 
     name rtibia
     direction -0.34202 -0.939693 0   
     length 6.86532   
     axis 0 0 -20   XYZ
    dof rx
    limits (-10.0 170.0)
 end
 begin
     id 9 
     name rfoot
     direction -0.105199 -0.289033 0.951521   
     length 1.77126  
     axis -90 -7.62852e-016 -20   XYZ
    dof rx rz
    limits (-45.0 90.0)
           (-20.0 70.0)
  end
  begin
     id 10 
     name rtoes
     direction -1.53551e-011 -4.21978e-011 1   
     length 0.889273   
     axis -90 -7.62852e-016 -20   XYZ
    dof rx
    limits (-90.0 20.0)
  end
  begin
     id 11 
     name lowerback
     direction -0.0514305 0.998089 0.034245   
     length 2.02077   
     axis 0 0 0   XYZ
    dof rx ry rz
    limits (-20.0 45.0)
           (-30.0 30.0)
           (-30.0 30.0)
  end
  begin
     id 12 
     name upperback
     direction 0.0203189 0.999449 -0.0262315   
     length 2.01413   
     axis 0 0 0   XYZ
    dof rx ry rz
    limits (-20.0 45.0)
           (-30.0 30.0)
           (-30.0 30.0)
  end
  begin
     id 13 
     name thorax
     direction 0.0452736 0.998142 -0.0407729   
     length 2.02986   
     axis 0 0 0   XYZ
    dof rx ry rz
    limits (-20.0 45.0)
           (-30.0 30.0)
           (-30.0 30.0)
  end
  begin
     id 14 
     name lowerneck
     direction -0.0180464 0.999645 -0.0195774   
     length 1.59034   
     axis 0 0 0   XYZ
    dof rx ry rz
    limits (-20.0 45.0)
           (-30.0 30.0)
           (-30.0 30.0)
  end
  begin
     id 15 
     name upperneck
     direction 0.0732272 0.979935 -0.18538   
     length 1.57486   
     axis 0 0 0   XYZ
    dof rx ry rz
    limits (-20.0 45.0)
           (-30.0 30.0)
           (-30.0 30.0)
  end
  begin
     id 16
     name head
     direction 0.0252963 0.997909 -0.059472  
     length 1.60334  
     axis 0 0 0   XYZ
    dof rx ry rz
    limits (-20.0 45.0)
           (-30.0 30.0)
           (-30.0 30.0)
  end
  begin
     id 17 
     name lclavicle
     direction 0.943819 0.330449 0.00315172  
     length 3.50322  
     axis 0 0 0   XYZ
    dof ry rz
    limits (-20.0 10.0)
           (0.0 20.0)
  end
  begin
     id 18 
     name lhumerus
     direction 1 -4.48949e-011 2.22502e-028   
     length 4.63208   
     axis 180 -30 -90   XYZ
    dof rx ry rz
    limits (-60.0 90.0)
           (-90.0 90.0)
           (-90.0 90.0)
  end
  begin
     id 19
     name lradius
     direction 1 -4.48967e-011 -4.10197e-027   
     length 3.41924   
     axis 180 -30 -90   XYZ
    dof rx
    limits (-10.0 170.0)
  end
  begin
     id 20
     name lwrist
     direction 1 -4.48987e-011 -1.24264e-027   
     length 1.70962   
     axis 2.50585e-015 90 90   XYZ
    dof ry
    limits (-180.0 0.0)
 end
  begin
     id 21 
     name lhand
     direction 1 -4.48983e-011 -2.48528e-027   
     length 0.62537   
     axis 1.58582e-015 90 90   XYZ
    dof rx rz
    limits (-90.0 90.0)
           (-45.0 45.0)
  end
  begin
     id 22 
     name lfingers
     direction 1 -4.48896e-011 -4.97056e-027   
     length 0.50419   
     axis 3.17164e-015 90 90   XYZ
    dof rx
    limits (0.0 90.0)
  end
  begin
     id 23
     name lthumb
     direction 0.707107 -6.34803e-011 0.707107   
     length 0.723919   
     axis -90 45 2.85299e-015   XYZ
    dof rx rz
    limits (-45.0 45.0)
           (-45.0 45.0)
  end
  begin
     id 24 
     name rclavicle
     direction -0.964499 0.260664 -0.0423695   
     length 3.91997  
     axis 0 0 0   XYZ 
    dof ry rz
    limits (-10.0 20.0)
           (-20.0 0.0)
  end
  begin
     id 25 
     name rhumerus
     direction -1 -4.48957e-011 -1.98656e-027  
     length 4.4064   
     axis 180 30 90   XYZ
    dof rx ry rz
    limits (-90.0 60.0)
           (-90.0 90.0)
           (-90.0 90.0)
  end
  begin
     id 26 
     name rradius
     direction -1 -4.48968e-011 1.96972e-027   
     length 3.44675   
     axis 180 30 90   XYZ
    dof rx
    limits (-10.0 170.0)
  end
  begin
     id 27 
     name rwrist
     direction -1 -4.48974e-011 -1.24264e-027   
     length 1.72338   
     axis 2.50585e-015 -90 -90   XYZ
    dof ry
    limits (-180.0 0.0)
  end
  begin
     id 28
     name rhand
     direction -1 -4.48901e-011 -2.48528e-027   
     length 0.513674   
     axis 1.58582e-015 -90 -90   XYZ
    dof rx rz
    limits (-90.0 90.0)
           (-45.0 45.0)
  end
  begin
     id 29
     name rfingers
     direction -1 -4.48946e-011 -4.97056e-027   
     length 0.414137   
     axis 3.17164e-015 -90 -90   XYZ
    dof rx
    limits (0.0 90.0)
  end
  begin
     id 30
     name rthumb
     direction -0.707107 -6.34859e-011 0.707107   
     length 0.59462   
     axis -90 -45 -2.85299e-015   XYZ
    dof rx rz
    limits (-45.0 45.0)
           (-45.0 45.0)
  end
:hierarchy
  begin
    root lhipjoint rhipjoint lowerback
    lhipjoint lfemur
    lfemur ltibia
    ltibia lfoot
    lfoot ltoes
    rhipjoint rfemur
    rfemur rtibia
    rtibia rfoot
    rfoot rtoes
    lowerback upperback
    upperback thorax
    thorax lowerneck lclavicle rclavicle
    lowerneck upperneck
    upperneck head
    lclavicle lhumerus
    lhumerus lradius
    lradius lwrist
    lwrist lhand lthumb
    lhand lfingers
    rclavicle rhumerus
    rhumerus rradius
    rradius rwrist
    rwrist rhand rthumb
    rhand rfingers
  end

#!OML:ASF E:\inclinewalkrobotboard\Project 1\Capture day 1\Session 1\subject1.ASF
:FULLY-SPECIFIED
:DEGREES
144
root 11.7719 16.2377 0.0200428 -10.5112 -40.2286 4.31365
lowerback 33.3754 6.16319 2.68513
upperback 14.7872 8.35381 12.2551
thorax -2.44243 3.47409 8.80513
lowerneck -14.8573 1.43696 1.61359
upperneck 5.82567 2.45569 -8.84181
head 4.30086 0.704147 -2.81139
rclavicle -8.5875e-014 3.18055e-015
rhumerus 23.5342 39.9585 -94.4454
rradius 122.266
rwrist -48.4404
rhand 56.2995 -34.4523
rfingers 7.12502
rthumb 73.4063 -14.2928
lclavicle -8.5875e-014 3.18055e-015
lhumerus 4.8808 -36.4816 90.5565
lradius 71.482
lwrist -20.7245
lhand -21.1458 -34.1605
lfingers 7.12502
lthumb 5.23361 -4.24514
rfemur -84.3616 -13.3325 26.5006
rtibia 115.456
rfoot -18.0768 3.65121
rtoes -28.7106
lfemur -85.8743 5.588 -30.2582
ltibia 120.223
lfoot -13.6162 -3.83359
ltoes -59.0214
145
root 11.7829 16.2472 0.0162183 -10.296 -40.0092 4.4174
lowerback 33.2012 6.36028 2.55647
upperback 15.0367 8.53634 12.5873
thorax -2.21805 3.54751 9.19131
lowerneck -14.3312 1.30827 1.9453
upperneck 4.93678 2.15711 -8.92802
head 3.93141 0.5954 -2.91173
rclavicle -1.46306e-013 3.81667e-014
rhumerus 24.1507 40.394 -94.699
rradius 123.122
rwrist -49.1315
rhand 60.0347 -36.5732
rfingers 7.12502
rthumb 74.6083 -4.03731
lclavicle -1.46306e-013 3.81667e-014
lhumerus 4.97982 -36.0033 91.8771
lradius 71.5524
lwrist -19.637
lhand -19.7467 -34.8404
lfingers 7.12502
lthumb 6.58439 -4.96276
rfemur -84.8082 -13.6541 26.5073
rtibia 115.466
rfoot -17.2214 3.59276
rtoes -26.9859
lfemur -86.144 4.9303 -30.2626
ltibia 120.085
lfoot -13.3436 -3.73389
ltoes -58.8768
146
root 11.7974 16.2599 0.0195094 -10.0357 -39.7168 4.53553
lowerback 33.0884 6.50968 2.4085
upperback 15.1723 8.67891 12.9311
thorax -2.14339 3.60293 9.60407
lowerneck -13.7828 1.19767 2.24388
upperneck 4.23618 1.90863 -9.02315
head 3.61932 0.504199 -3.00477
rclavicle -6.04305e-014 1.27222e-014
rhumerus 23.4072 40.7595 -95.3717
rradius 124.081
rwrist -49.7129
rhand 63.2148 -38.1932
rfingers 7.12502
rthumb 74.9782 5.98658
lclavicle -6.04305e-014 1.27222e-014
lhumerus 4.93548 -35.8461 93.1787
lradius 71.6468
lwrist -18.0766
lhand -19.2309 -35.3796
lfingers 7.12502
lthumb 7.08226 -5.51809
rfemur -85.2677 -14.112 26.5014
rtibia 115.492
rfoot -16.4817 3.69346
rtoes -25.3884
lfemur -86.3728 4.10985 -30.2425
ltibia 119.92
lfoot -13.0429 -3.6893
ltoes -58.2815
147
root 11.8154 16.2745 0.0298095 -9.86464 -39.5533 4.59115
lowerback 33.2164 6.6181 2.40228
upperback 15.2495 8.8234 13.2112
thorax -2.18827 3.66237 9.8533
lowerneck -13.2051 1.14185 2.34422
upperneck 3.75967 1.7746 -8.92466
head 3.37312 0.470614 -2.99713
rclavicle -6.04305e-014 2.22639e-014
rhumerus 21.3109 41.131 -96.8615
rradius 124.462
rwrist -49.9906
rhand 66.1761 -39.3763
rfingers 7.12502
rthumb 74.7373 15.7293
lclavicle -6.04305e-014 2.22639e-014
lhumerus 4.83116 -35.3965 94.4047
lradius 71.7484
lwrist -17.9883
lhand -17.7209 -35.2749
lfingers 7.12502
lthumb 8.53971 -5.46755
rfemur -85.4553 -14.5189 26.5138
rtibia 115.443
rfoot -15.8934 3.87338
rtoes -24.0245
lfemur -86.3294 3.46367 -30.212
ltibia 119.8
lfoot -12.9853 -3.54565
ltoes -57.7153
148
root 11.8356 16.2874 0.0384489 -9.75178 -39.4965 4.54138
lowerback 33.4871 6.65173 2.53934
upperback 15.3222 8.91077 13.3885
thorax -2.23689 3.6967 9.9273
lowerneck -12.5651 1.09743 2.40432
upperneck 3.3423 1.66303 -8.72214
head 3.13489 0.451535 -2.94934
rclavicle 3.18055e-014 2.54444e-014
rhumerus 22.2833 41.6854 -97.5987
rradius 125.76
rwrist -50.3604
rhand 66.4433 -41.58
rfingers 7.12502
rthumb 74.6882 14.4865
lclavicle 3.18055e-014 2.54444e-014
lhumerus 4.84918 -34.9106 95.2844
lradius 71.7623
lwrist -18.2514
lhand -16.3874 -35.6668
lfingers 7.12502
lthumb 9.82642 -5.9161
rfemur -85.4738 -14.8121 26.5819
rtibia 115.341
rfoot -15.3853 3.99283
rtoes -22.4211
lfemur -86.2024 3.03896 -30.1296
ltibia 119.719
lfoot -13.0133 -3.31487
ltoes -57.3362
